<svg width="36" height="36" viewBox="0 0 36 36" fill="none" xmlns="http://www.w3.org/2000/svg">
<g clip-path="url(#clip0_236_1338)">
<path d="M18 0.947388H10.4211C5.18891 0.947388 0.947388 5.18891 0.947388 10.4211V25.579C0.947388 30.8111 5.18891 35.0526 10.4211 35.0526H25.579C30.8111 35.0526 35.0526 30.8111 35.0526 25.579V10.4211C35.0526 5.18891 30.8111 0.947388 25.579 0.947388H18Z" stroke="white" stroke-width="3" stroke-linecap="round" stroke-linejoin="round"/>
<path d="M18 10.421C22.1857 10.421 25.5789 13.8142 25.5789 18C25.5789 22.1857 22.1857 25.5789 18 25.5789C13.8142 25.5789 10.421 22.1856 10.421 18C10.421 13.8142 13.8142 10.421 18 10.421Z" stroke="white" stroke-width="3" stroke-linecap="round" stroke-linejoin="round"/>
<path d="M27.4737 11.3684C29.0433 11.3684 30.3158 10.096 30.3158 8.52631C30.3158 6.95666 29.0433 5.6842 27.4737 5.6842C25.904 5.6842 24.6316 6.95666 24.6316 8.52631C24.6316 10.096 25.904 11.3684 27.4737 11.3684Z" fill="white"/>
</g>
<defs>
<clipPath id="clip0_236_1338">
<rect width="36" height="36" fill="white"/>
</clipPath>
</defs>
</svg>
