<svg width="32" height="32" viewBox="0 0 32 32" fill="none" xmlns="http://www.w3.org/2000/svg">
<path d="M6.09387 12.1875H8.53137C8.53234 11.2181 8.91786 10.2887 9.60333 9.60321C10.2888 8.91774 11.2182 8.53222 12.1876 8.53125V6.09375C10.5721 6.09569 9.02321 6.73832 7.88083 7.88071C6.73845 9.02309 6.09581 10.5719 6.09387 12.1875Z" fill="black"/>
<path d="M1.21886 12.1875H3.65636C3.65894 9.92566 4.55859 7.75721 6.15795 6.15785C7.75731 4.55849 9.92577 3.65883 12.1876 3.65625V1.21875C9.2795 1.22198 6.49143 2.37865 4.43509 4.43499C2.37875 6.49133 1.22208 9.2794 1.21886 12.1875ZM3.65636 31.6875H3.86355C27.812 30.3103 31.2123 10.1034 31.6876 3.93656C31.7619 2.96979 31.4491 2.01309 30.8181 1.27691C30.187 0.540736 29.2894 0.0853669 28.3226 0.01097C28.226 0.00365747 28.1289 1.14269e-06 28.0314 1.14269e-06H21.6085C21.1204 -0.000471444 20.6433 0.145654 20.2391 0.419448C19.8349 0.693243 19.5223 1.08209 19.3417 1.53563L17.4892 6.09375C17.3108 6.53682 17.2665 7.02253 17.3619 7.49055C17.4572 7.95856 17.688 8.38826 18.0254 8.72625L20.6214 11.3466C20.2175 13.6516 19.1145 15.7767 17.462 17.4336C15.8094 19.0905 13.6872 20.1991 11.3832 20.6091L8.73855 17.9888C8.39547 17.655 7.96173 17.4296 7.49142 17.3408C7.02111 17.2519 6.53505 17.3035 6.09386 17.4891L1.49917 19.3294C1.05247 19.5157 0.671364 19.8308 0.404394 20.2345C0.137424 20.6382 -0.00331497 21.1123 0.000108719 21.5962V28.0312C0.000108719 29.0009 0.385319 29.9309 1.071 30.6166C1.75668 31.3023 2.68666 31.6875 3.65636 31.6875ZM28.0314 2.4375C28.1914 2.43702 28.35 2.46807 28.498 2.52887C28.6461 2.58968 28.7807 2.67905 28.8942 2.79188C29.0077 2.90471 29.0979 3.03879 29.1596 3.18648C29.2213 3.33416 29.2533 3.49255 29.2538 3.6526C29.2538 3.68672 29.2525 3.72044 29.2501 3.75375C28.6895 10.9688 25.0942 28.0312 3.72948 29.25C3.40691 29.2693 3.08987 29.1598 2.84807 28.9454C2.60627 28.731 2.4595 28.4294 2.44005 28.1068L2.43761 28.0312V21.5962L7.0323 19.7559L10.5301 23.2294L11.1151 23.1562C21.7182 21.8278 23.1564 11.2247 23.1564 11.115L23.2295 10.53L19.7682 7.03219L21.5964 2.4375H28.0314Z" fill="black"/>
</svg>
