<svg width="35" height="36" viewBox="0 0 35 36" fill="none" xmlns="http://www.w3.org/2000/svg">
<path d="M6.49409 0C4.77381 0.00684617 3.12591 0.707799 1.90948 1.95011C0.693053 3.19242 0.00670354 4.87538 0 6.63226V29.1124C0.00670354 30.8693 0.693053 32.5523 1.90948 33.7946C3.12591 35.0369 4.77381 35.7378 6.49409 35.7447H28.5059C30.2262 35.7378 31.8741 35.0369 33.0905 33.7946C34.3069 32.5523 34.9933 30.8693 35 29.1124V6.63226C34.9933 4.87538 34.3069 3.19242 33.0905 1.95011C31.8741 0.707799 30.2262 0.00684617 28.5059 0H6.49409ZM6.49409 3.24952H28.5059C28.9416 3.24693 29.3734 3.33266 29.7765 3.50174C30.1795 3.67083 30.5456 3.9199 30.8537 4.23453C31.1618 4.54917 31.4057 4.92311 31.5712 5.33469C31.7368 5.74627 31.8207 6.18731 31.8182 6.63226V29.1124C31.8207 29.5574 31.7368 29.9984 31.5712 30.41C31.4057 30.8216 31.1618 31.1955 30.8537 31.5101C30.5456 31.8248 30.1795 32.0739 29.7765 32.2429C29.3734 32.412 28.9416 32.4978 28.5059 32.4952H6.49409C6.05835 32.498 5.6264 32.4124 5.2233 32.2434C4.82019 32.0744 4.45396 31.8253 4.14584 31.5106C3.83772 31.196 3.59384 30.8219 3.42836 30.4103C3.26287 29.9986 3.17907 29.5574 3.18182 29.1124V6.63226C3.17929 6.18731 3.26323 5.74627 3.42879 5.33469C3.59435 4.92311 3.83823 4.54917 4.14631 4.23453C4.45439 3.9199 4.82054 3.67083 5.22355 3.50174C5.62655 3.33266 6.05841 3.24693 6.49409 3.24952ZM17.053 11.747C15.8836 11.7356 14.8893 11.747 14.3309 12.0265C13.957 12.2117 13.6723 12.6292 13.8457 12.6487C14.0636 12.6812 14.5536 12.7885 14.8161 13.1508C15.1502 13.6138 15.1391 14.6618 15.1391 14.6618C15.1391 14.6618 15.3252 17.5425 14.6841 17.9048C14.2434 18.1518 13.6405 17.6497 12.3359 15.3588C11.6709 14.1793 11.1682 12.8778 11.1682 12.8778C11.1682 12.8778 11.0727 12.6357 10.9009 12.509C10.6893 12.3514 10.3966 12.2994 10.3966 12.2994L7.28318 12.3189C7.28318 12.3189 6.81705 12.3384 6.65 12.5415C6.49409 12.7316 6.63727 13.1053 6.63727 13.1053C6.63727 13.1053 9.07296 18.9252 11.8316 21.8579C14.3611 24.5501 17.2327 24.3714 17.2327 24.3714H18.5373C18.5373 24.3714 18.9286 24.3275 19.1275 24.1114C19.3152 23.9083 19.3089 23.5265 19.3089 23.5265C19.3089 23.5265 19.2834 21.7441 20.0916 21.4777C20.8934 21.2226 21.9116 23.2032 22.9998 23.9652C23.827 24.542 24.4539 24.4152 24.4539 24.4152L27.3636 24.3714C27.3636 24.3714 28.8798 24.2755 28.1591 23.0504C28.1034 22.9562 27.7423 22.1503 26.0034 20.4996C24.1755 18.7741 24.4189 19.0535 26.6175 16.064C27.9539 14.2426 28.4884 13.1313 28.3198 12.6487C28.1607 12.1987 27.1775 12.3189 27.1775 12.3189L23.9018 12.3384C23.9018 12.3384 23.66 12.3059 23.4802 12.4148C23.3566 12.5085 23.2581 12.6326 23.1939 12.7755C23.1939 12.7755 22.672 14.1841 21.9816 15.3848C20.5275 17.9097 19.9373 18.0494 19.7018 17.8918C19.1482 17.523 19.285 16.4182 19.285 15.6383C19.285 13.1817 19.6509 12.1662 18.577 11.9014C18.2223 11.812 17.9614 11.7551 17.0545 11.747H17.053Z" fill="white"/>
</svg>
